<mxfile host="65bd71144e">
    <diagram id="f3QbLaxvhX8w7SzqxYat" name="Page-1">
        <mxGraphModel dx="1478" dy="455" grid="1" gridSize="10" guides="1" tooltips="1" connect="1" arrows="1" fold="1" page="1" pageScale="1" pageWidth="850" pageHeight="1100" math="0" shadow="0">
            <root>
                <mxCell id="0"/>
                <mxCell id="1" parent="0"/>
                <mxCell id="2" value="Accept Connection&lt;br&gt;{browser socket created}" style="rounded=0;whiteSpace=wrap;html=1;" parent="1" vertex="1">
                    <mxGeometry x="240" y="40" width="120" height="60" as="geometry"/>
                </mxCell>
                <mxCell id="3" value="recieve data from the browser socket" style="rounded=0;whiteSpace=wrap;html=1;" parent="1" vertex="1">
                    <mxGeometry x="240" y="140" width="120" height="60" as="geometry"/>
                </mxCell>
                <mxCell id="4" value="is request?" style="rhombus;whiteSpace=wrap;html=1;" parent="1" vertex="1">
                    <mxGeometry x="260" y="240" width="80" height="80" as="geometry"/>
                </mxCell>
                <mxCell id="5" value="" style="endArrow=classic;html=1;exitX=0.5;exitY=1;exitDx=0;exitDy=0;entryX=0.5;entryY=0;entryDx=0;entryDy=0;" parent="1" source="2" target="3" edge="1">
                    <mxGeometry width="50" height="50" relative="1" as="geometry">
                        <mxPoint x="300" y="240" as="sourcePoint"/>
                        <mxPoint x="350" y="190" as="targetPoint"/>
                    </mxGeometry>
                </mxCell>
                <mxCell id="6" value="" style="endArrow=classic;html=1;exitX=0.5;exitY=1;exitDx=0;exitDy=0;" parent="1" source="3" target="4" edge="1">
                    <mxGeometry width="50" height="50" relative="1" as="geometry">
                        <mxPoint x="300" y="240" as="sourcePoint"/>
                        <mxPoint x="350" y="190" as="targetPoint"/>
                    </mxGeometry>
                </mxCell>
                <mxCell id="8" value="" style="endArrow=classic;html=1;exitX=1;exitY=0.5;exitDx=0;exitDy=0;" parent="1" source="4" edge="1">
                    <mxGeometry width="50" height="50" relative="1" as="geometry">
                        <mxPoint x="300" y="240" as="sourcePoint"/>
                        <mxPoint x="390" y="280" as="targetPoint"/>
                    </mxGeometry>
                </mxCell>
                <mxCell id="32" value="" style="edgeStyle=none;html=1;fontSize=13;" parent="1" source="10" target="27" edge="1">
                    <mxGeometry relative="1" as="geometry"/>
                </mxCell>
                <mxCell id="37" value="" style="edgeStyle=none;html=1;fontSize=13;" parent="1" source="10" target="35" edge="1">
                    <mxGeometry relative="1" as="geometry"/>
                </mxCell>
                <mxCell id="10" value="Dissect Browser request(obtain hostame)" style="rounded=0;whiteSpace=wrap;html=1;" parent="1" vertex="1">
                    <mxGeometry x="240" y="360" width="120" height="60" as="geometry"/>
                </mxCell>
                <mxCell id="15" value="" style="shape=curlyBracket;whiteSpace=wrap;html=1;rounded=1;labelPosition=left;verticalLabelPosition=middle;align=right;verticalAlign=middle;" parent="1" vertex="1">
                    <mxGeometry x="20" y="615" width="20" height="120" as="geometry"/>
                </mxCell>
                <mxCell id="16" value="" style="shape=curlyBracket;whiteSpace=wrap;html=1;rounded=1;flipH=1;labelPosition=right;verticalLabelPosition=middle;align=left;verticalAlign=middle;size=0.5;" parent="1" vertex="1">
                    <mxGeometry x="170" y="620" width="20" height="120" as="geometry"/>
                </mxCell>
                <mxCell id="111" value="" style="edgeStyle=none;html=1;fontSize=13;" parent="1" source="18" target="107" edge="1">
                    <mxGeometry relative="1" as="geometry"/>
                </mxCell>
                <mxCell id="18" value="ClientSslSocket,&lt;br&gt;hostname,&lt;br&gt;hostDir,&lt;br&gt;destServerSslSocket,&lt;br&gt;usehttpLibs,&lt;br&gt;browserSocket,&lt;br&gt;requestPacket,&lt;br&gt;http&lt;br&gt;" style="text;html=1;align=center;verticalAlign=middle;resizable=0;points=[];autosize=1;strokeColor=none;fillColor=none;" parent="1" vertex="1">
                    <mxGeometry x="40" y="615" width="140" height="130" as="geometry"/>
                </mxCell>
                <mxCell id="23" value="" style="endArrow=classic;html=1;exitX=0.5;exitY=1;exitDx=0;exitDy=0;entryX=0.5;entryY=0;entryDx=0;entryDy=0;" parent="1" source="4" target="10" edge="1">
                    <mxGeometry width="50" height="50" relative="1" as="geometry">
                        <mxPoint x="280" y="390" as="sourcePoint"/>
                        <mxPoint x="330" y="340" as="targetPoint"/>
                    </mxGeometry>
                </mxCell>
                <mxCell id="24" value="yes&lt;br&gt;" style="text;html=1;align=center;verticalAlign=middle;resizable=0;points=[];autosize=1;strokeColor=none;fillColor=none;" parent="1" vertex="1">
                    <mxGeometry x="300" y="320" width="40" height="30" as="geometry"/>
                </mxCell>
                <mxCell id="25" value="no&lt;br&gt;" style="text;html=1;align=center;verticalAlign=middle;resizable=0;points=[];autosize=1;strokeColor=none;fillColor=none;" parent="1" vertex="1">
                    <mxGeometry x="340" y="255" width="40" height="30" as="geometry"/>
                </mxCell>
                <mxCell id="31" value="" style="edgeStyle=none;html=1;fontSize=13;" parent="1" source="27" target="29" edge="1">
                    <mxGeometry relative="1" as="geometry"/>
                </mxCell>
                <mxCell id="44" value="" style="edgeStyle=none;html=1;fontSize=13;" parent="1" source="27" target="43" edge="1">
                    <mxGeometry relative="1" as="geometry"/>
                </mxCell>
                <mxCell id="27" value="generate host certificates" style="rounded=0;whiteSpace=wrap;html=1;" parent="1" vertex="1">
                    <mxGeometry x="240" y="450" width="120" height="60" as="geometry"/>
                </mxCell>
                <mxCell id="108" value="" style="edgeStyle=none;html=1;fontSize=13;" parent="1" source="29" target="107" edge="1">
                    <mxGeometry relative="1" as="geometry"/>
                </mxCell>
                <mxCell id="29" value="upgrade browser socket to ssl" style="rounded=0;whiteSpace=wrap;html=1;" parent="1" vertex="1">
                    <mxGeometry x="240" y="550" width="120" height="60" as="geometry"/>
                </mxCell>
                <mxCell id="35" value="hostname" style="text;html=1;align=center;verticalAlign=middle;resizable=0;points=[];autosize=1;strokeColor=none;fillColor=none;fontSize=13;" parent="1" vertex="1">
                    <mxGeometry x="400" y="375" width="80" height="30" as="geometry"/>
                </mxCell>
                <mxCell id="43" value="certificates" style="text;html=1;align=center;verticalAlign=middle;resizable=0;points=[];autosize=1;strokeColor=none;fillColor=none;fontSize=13;" parent="1" vertex="1">
                    <mxGeometry x="395" y="465" width="90" height="30" as="geometry"/>
                </mxCell>
                <mxCell id="61" value="" style="edgeStyle=none;html=1;fontSize=13;" parent="1" source="57" target="60" edge="1">
                    <mxGeometry relative="1" as="geometry"/>
                </mxCell>
                <mxCell id="57" value="is websocket" style="rhombus;whiteSpace=wrap;html=1;fontSize=13;" parent="1" vertex="1">
                    <mxGeometry x="250" y="1000" width="90" height="80" as="geometry"/>
                </mxCell>
                <mxCell id="59" value="extract headers," style="text;html=1;align=center;verticalAlign=middle;resizable=0;points=[];autosize=1;strokeColor=none;fillColor=none;fontSize=13;" parent="1" vertex="1">
                    <mxGeometry x="290" y="950" width="120" height="30" as="geometry"/>
                </mxCell>
                <mxCell id="67" value="" style="edgeStyle=none;html=1;fontSize=13;" parent="1" source="60" target="66" edge="1">
                    <mxGeometry relative="1" as="geometry"/>
                </mxCell>
                <mxCell id="69" value="" style="edgeStyle=none;html=1;fontSize=13;" parent="1" source="60" target="62" edge="1">
                    <mxGeometry relative="1" as="geometry"/>
                </mxCell>
                <mxCell id="60" value="is body encoded" style="rhombus;whiteSpace=wrap;html=1;fontSize=13;" parent="1" vertex="1">
                    <mxGeometry x="420" y="1000" width="90" height="80" as="geometry"/>
                </mxCell>
                <mxCell id="71" value="" style="edgeStyle=none;html=1;fontSize=13;" parent="1" source="62" target="70" edge="1">
                    <mxGeometry relative="1" as="geometry"/>
                </mxCell>
                <mxCell id="62" value="get used encoding&lt;br&gt;from content-encodig header" style="text;html=1;align=center;verticalAlign=middle;resizable=0;points=[];autosize=1;strokeColor=none;fillColor=none;fontSize=13;" parent="1" vertex="1">
                    <mxGeometry x="370" y="1100" width="190" height="40" as="geometry"/>
                </mxCell>
                <mxCell id="63" value="no" style="text;html=1;align=center;verticalAlign=middle;resizable=0;points=[];autosize=1;strokeColor=none;fillColor=none;fontSize=13;" parent="1" vertex="1">
                    <mxGeometry x="355" y="1010" width="40" height="30" as="geometry"/>
                </mxCell>
                <mxCell id="65" value="yes" style="text;html=1;align=center;verticalAlign=middle;resizable=0;points=[];autosize=1;strokeColor=none;fillColor=none;fontSize=13;" parent="1" vertex="1">
                    <mxGeometry x="295" y="1090" width="40" height="30" as="geometry"/>
                </mxCell>
                <mxCell id="66" value="decode using utf-8" style="whiteSpace=wrap;html=1;fontSize=13;" parent="1" vertex="1">
                    <mxGeometry x="575" y="1010" width="120" height="60" as="geometry"/>
                </mxCell>
                <mxCell id="68" value="no" style="text;html=1;align=center;verticalAlign=middle;resizable=0;points=[];autosize=1;strokeColor=none;fillColor=none;fontSize=13;" parent="1" vertex="1">
                    <mxGeometry x="515" y="1015" width="40" height="30" as="geometry"/>
                </mxCell>
                <mxCell id="76" value="" style="edgeStyle=none;html=1;fontSize=13;" parent="1" source="70" target="75" edge="1">
                    <mxGeometry relative="1" as="geometry"/>
                </mxCell>
                <mxCell id="70" value="decode the body using the obtained encoding format" style="whiteSpace=wrap;html=1;fontSize=13;" parent="1" vertex="1">
                    <mxGeometry x="405" y="1170" width="120" height="60" as="geometry"/>
                </mxCell>
                <mxCell id="73" value="" style="shape=curlyBracket;whiteSpace=wrap;html=1;rounded=1;flipH=1;labelPosition=right;verticalLabelPosition=middle;align=left;verticalAlign=middle;fontSize=13;" parent="1" vertex="1">
                    <mxGeometry x="705" y="1060" width="20" height="120" as="geometry"/>
                </mxCell>
                <mxCell id="85" value="" style="edgeStyle=none;html=1;fontSize=13;" parent="1" source="75" target="84" edge="1">
                    <mxGeometry relative="1" as="geometry"/>
                </mxCell>
                <mxCell id="75" value="DissectBrowserReqPkt" style="whiteSpace=wrap;html=1;fontSize=13;" parent="1" vertex="1">
                    <mxGeometry x="392.5" y="1310" width="145" height="60" as="geometry"/>
                </mxCell>
                <mxCell id="80" value="" style="edgeStyle=segmentEdgeStyle;endArrow=classic;html=1;curved=0;rounded=0;endSize=8;startSize=8;fontSize=13;exitX=0.5;exitY=1;exitDx=0;exitDy=0;entryX=1;entryY=0.5;entryDx=0;entryDy=0;" parent="1" source="66" target="75" edge="1">
                    <mxGeometry width="50" height="50" relative="1" as="geometry">
                        <mxPoint x="375" y="1270" as="sourcePoint"/>
                        <mxPoint x="425" y="1220" as="targetPoint"/>
                        <Array as="points">
                            <mxPoint x="635" y="1340"/>
                        </Array>
                    </mxGeometry>
                </mxCell>
                <mxCell id="81" value="method,&amp;nbsp;&lt;br&gt;url,&lt;br&gt;parameters,&lt;br&gt;body,&lt;br&gt;urlwithparams,&lt;br&gt;" style="text;html=1;align=center;verticalAlign=middle;resizable=0;points=[];autosize=1;strokeColor=none;fillColor=none;fontSize=13;" parent="1" vertex="1">
                    <mxGeometry x="695" y="1290" width="110" height="90" as="geometry"/>
                </mxCell>
                <mxCell id="82" value="" style="endArrow=classic;html=1;fontSize=13;entryX=0;entryY=0.556;entryDx=0;entryDy=0;entryPerimeter=0;" parent="1" target="81" edge="1">
                    <mxGeometry width="50" height="50" relative="1" as="geometry">
                        <mxPoint x="645" y="1340" as="sourcePoint"/>
                        <mxPoint x="425" y="1250" as="targetPoint"/>
                    </mxGeometry>
                </mxCell>
                <mxCell id="83" value="" style="edgeStyle=segmentEdgeStyle;endArrow=classic;html=1;curved=0;rounded=0;endSize=8;startSize=8;fontSize=13;exitX=0.5;exitY=1;exitDx=0;exitDy=0;entryX=0.5;entryY=0;entryDx=0;entryDy=0;" parent="1" source="57" edge="1" target="140">
                    <mxGeometry width="50" height="50" relative="1" as="geometry">
                        <mxPoint x="375" y="1200" as="sourcePoint"/>
                        <mxPoint x="45" y="1190" as="targetPoint"/>
                        <Array as="points">
                            <mxPoint x="40" y="1080"/>
                        </Array>
                    </mxGeometry>
                </mxCell>
                <mxCell id="87" value="" style="edgeStyle=none;html=1;fontSize=13;" parent="1" source="84" target="86" edge="1">
                    <mxGeometry relative="1" as="geometry"/>
                </mxCell>
                <mxCell id="89" value="" style="edgeStyle=none;html=1;fontSize=13;" parent="1" source="84" target="88" edge="1">
                    <mxGeometry relative="1" as="geometry"/>
                </mxCell>
                <mxCell id="84" value="PoolManager.request()" style="whiteSpace=wrap;html=1;fontSize=13;" parent="1" vertex="1">
                    <mxGeometry x="395" y="1410" width="140" height="60" as="geometry"/>
                </mxCell>
                <mxCell id="86" value="response" style="text;html=1;align=center;verticalAlign=middle;resizable=0;points=[];autosize=1;strokeColor=none;fillColor=none;fontSize=13;" parent="1" vertex="1">
                    <mxGeometry x="575" y="1425" width="80" height="30" as="geometry"/>
                </mxCell>
                <mxCell id="93" value="" style="edgeStyle=none;html=1;fontSize=13;" parent="1" source="88" target="92" edge="1">
                    <mxGeometry relative="1" as="geometry"/>
                </mxCell>
                <mxCell id="88" value="construct respose packet" style="text;html=1;align=center;verticalAlign=middle;resizable=0;points=[];autosize=1;strokeColor=none;fillColor=none;fontSize=13;" parent="1" vertex="1">
                    <mxGeometry x="380" y="1510" width="170" height="30" as="geometry"/>
                </mxCell>
                <mxCell id="95" value="" style="edgeStyle=none;html=1;fontSize=13;" parent="1" source="92" target="94" edge="1">
                    <mxGeometry relative="1" as="geometry"/>
                </mxCell>
                <mxCell id="103" value="" style="edgeStyle=none;html=1;fontSize=13;" parent="1" source="92" target="101" edge="1">
                    <mxGeometry relative="1" as="geometry"/>
                </mxCell>
                <mxCell id="92" value="get body,&lt;br&gt;headers,&lt;br&gt;construct status line" style="whiteSpace=wrap;html=1;fontSize=13;" parent="1" vertex="1">
                    <mxGeometry x="405" y="1550" width="120" height="60" as="geometry"/>
                </mxCell>
                <mxCell id="94" value="body,&lt;br&gt;headers,&lt;br&gt;status line" style="text;html=1;align=center;verticalAlign=middle;resizable=0;points=[];autosize=1;strokeColor=none;fillColor=none;fontSize=13;" parent="1" vertex="1">
                    <mxGeometry x="565" y="1550" width="80" height="60" as="geometry"/>
                </mxCell>
                <mxCell id="99" value="" style="edgeStyle=none;html=1;fontSize=13;" parent="1" source="96" target="98" edge="1">
                    <mxGeometry relative="1" as="geometry"/>
                </mxCell>
                <mxCell id="96" value="get body length" style="whiteSpace=wrap;html=1;fontSize=13;" parent="1" vertex="1">
                    <mxGeometry x="405" y="1750" width="120" height="60" as="geometry"/>
                </mxCell>
                <mxCell id="120" value="" style="edgeStyle=none;html=1;fontSize=13;" parent="1" source="98" target="119" edge="1">
                    <mxGeometry relative="1" as="geometry"/>
                </mxCell>
                <mxCell id="98" value="replace transfer-encoding header with contet-length" style="whiteSpace=wrap;html=1;fontSize=13;" parent="1" vertex="1">
                    <mxGeometry x="405" y="1840" width="120" height="60" as="geometry"/>
                </mxCell>
                <mxCell id="102" value="" style="edgeStyle=none;html=1;fontSize=13;" parent="1" source="101" target="96" edge="1">
                    <mxGeometry relative="1" as="geometry"/>
                </mxCell>
                <mxCell id="105" value="" style="edgeStyle=none;html=1;fontSize=13;" parent="1" source="101" target="104" edge="1">
                    <mxGeometry relative="1" as="geometry"/>
                </mxCell>
                <mxCell id="101" value="is body encoded" style="rhombus;whiteSpace=wrap;html=1;fontSize=13;" parent="1" vertex="1">
                    <mxGeometry x="425" y="1640" width="80" height="80" as="geometry"/>
                </mxCell>
                <mxCell id="104" value="get encoding scheme from headers and decode" style="whiteSpace=wrap;html=1;fontSize=13;" parent="1" vertex="1">
                    <mxGeometry x="565" y="1650" width="120" height="60" as="geometry"/>
                </mxCell>
                <mxCell id="106" value="" style="edgeStyle=segmentEdgeStyle;endArrow=classic;html=1;curved=0;rounded=0;endSize=8;startSize=8;fontSize=13;exitX=0.5;exitY=1;exitDx=0;exitDy=0;" parent="1" source="104" target="96" edge="1">
                    <mxGeometry width="50" height="50" relative="1" as="geometry">
                        <mxPoint x="335" y="1770" as="sourcePoint"/>
                        <mxPoint x="655" y="1790" as="targetPoint"/>
                        <Array as="points">
                            <mxPoint x="625" y="1787"/>
                        </Array>
                    </mxGeometry>
                </mxCell>
                <mxCell id="124" value="" style="edgeStyle=none;html=1;fontSize=13;" parent="1" source="107" target="123" edge="1">
                    <mxGeometry relative="1" as="geometry"/>
                </mxCell>
                <mxCell id="107" value="openHttpsCommTunnel" style="text;html=1;align=center;verticalAlign=middle;resizable=0;points=[];autosize=1;strokeColor=none;fillColor=none;fontSize=13;" parent="1" vertex="1">
                    <mxGeometry x="220" y="665" width="160" height="30" as="geometry"/>
                </mxCell>
                <mxCell id="117" value="yes" style="text;html=1;align=center;verticalAlign=middle;resizable=0;points=[];autosize=1;strokeColor=none;fillColor=none;fontSize=13;" parent="1" vertex="1">
                    <mxGeometry x="505" y="1645" width="40" height="30" as="geometry"/>
                </mxCell>
                <mxCell id="118" value="no" style="text;html=1;align=center;verticalAlign=middle;resizable=0;points=[];autosize=1;strokeColor=none;fillColor=none;fontSize=13;" parent="1" vertex="1">
                    <mxGeometry x="465" y="1715" width="40" height="30" as="geometry"/>
                </mxCell>
                <mxCell id="122" value="" style="edgeStyle=none;html=1;fontSize=13;" parent="1" source="119" target="121" edge="1">
                    <mxGeometry relative="1" as="geometry"/>
                </mxCell>
                <mxCell id="139" value="" style="edgeStyle=none;html=1;fontSize=13;" parent="1" source="119" target="138" edge="1">
                    <mxGeometry relative="1" as="geometry"/>
                </mxCell>
                <mxCell id="119" value="construct header, cookie,&lt;br&gt;strings&lt;br&gt;and add to body to reproduce packet bytes" style="whiteSpace=wrap;html=1;fontSize=13;" parent="1" vertex="1">
                    <mxGeometry x="405" y="1950" width="120" height="100" as="geometry"/>
                </mxCell>
                <mxCell id="121" value="responsePacket(bytes)" style="text;html=1;align=center;verticalAlign=middle;resizable=0;points=[];autosize=1;strokeColor=none;fillColor=none;fontSize=13;" parent="1" vertex="1">
                    <mxGeometry x="545" y="1985" width="160" height="30" as="geometry"/>
                </mxCell>
                <mxCell id="129" value="" style="edgeStyle=none;html=1;fontSize=13;" parent="1" target="128" edge="1">
                    <mxGeometry relative="1" as="geometry">
                        <mxPoint x="290" y="770" as="sourcePoint"/>
                    </mxGeometry>
                </mxCell>
                <mxCell id="123" value="ForwardBrowserRequestPacket" style="text;html=1;align=center;verticalAlign=middle;resizable=0;points=[];autosize=1;strokeColor=none;fillColor=none;fontSize=13;" parent="1" vertex="1">
                    <mxGeometry x="195" y="745" width="210" height="30" as="geometry"/>
                </mxCell>
                <mxCell id="127" value="" style="endArrow=classic;html=1;fontSize=13;entryX=0.5;entryY=0;entryDx=0;entryDy=0;exitX=0.5;exitY=1;exitDx=0;exitDy=0;" parent="1" source="128" target="57" edge="1">
                    <mxGeometry width="50" height="50" relative="1" as="geometry">
                        <mxPoint x="295" y="1002.31" as="sourcePoint"/>
                        <mxPoint x="415" y="972.31" as="targetPoint"/>
                    </mxGeometry>
                </mxCell>
                <mxCell id="133" value="" style="edgeStyle=none;html=1;fontSize=13;" parent="1" source="128" target="132" edge="1">
                    <mxGeometry relative="1" as="geometry"/>
                </mxCell>
                <mxCell id="128" value="request_ packet is not None" style="rhombus;whiteSpace=wrap;html=1;fontSize=13;" parent="1" vertex="1">
                    <mxGeometry x="250" y="820" width="90" height="100" as="geometry"/>
                </mxCell>
                <mxCell id="132" value="ClientSslSocket.recieve()" style="whiteSpace=wrap;html=1;fontSize=13;" parent="1" vertex="1">
                    <mxGeometry x="410" y="840" width="150" height="60" as="geometry"/>
                </mxCell>
                <mxCell id="134" value="recieving from the browser" style="shape=callout;whiteSpace=wrap;html=1;perimeter=calloutPerimeter;fontSize=13;" parent="1" vertex="1">
                    <mxGeometry x="545" y="760" width="120" height="80" as="geometry"/>
                </mxCell>
                <mxCell id="136" value="no" style="text;html=1;align=center;verticalAlign=middle;resizable=0;points=[];autosize=1;strokeColor=none;fillColor=none;fontSize=13;" parent="1" vertex="1">
                    <mxGeometry x="350" y="835" width="40" height="30" as="geometry"/>
                </mxCell>
                <mxCell id="137" value="" style="endArrow=classic;html=1;fontSize=13;exitX=0;exitY=0;exitDx=60;exitDy=80;exitPerimeter=0;entryX=1;entryY=0;entryDx=0;entryDy=0;" parent="1" source="134" target="132" edge="1">
                    <mxGeometry width="50" height="50" relative="1" as="geometry">
                        <mxPoint x="230" y="890" as="sourcePoint"/>
                        <mxPoint x="280" y="840" as="targetPoint"/>
                    </mxGeometry>
                </mxCell>
                <mxCell id="138" value="ClientSslSocket.send()" style="whiteSpace=wrap;html=1;fontSize=13;" parent="1" vertex="1">
                    <mxGeometry x="397.5" y="2090" width="135" height="50" as="geometry"/>
                </mxCell>
                <mxCell id="142" value="" style="edgeStyle=none;html=1;" edge="1" parent="1" source="140" target="141">
                    <mxGeometry relative="1" as="geometry"/>
                </mxCell>
                <mxCell id="140" value="get websocket&amp;nbsp;&lt;br&gt;key" style="rounded=0;whiteSpace=wrap;html=1;" vertex="1" parent="1">
                    <mxGeometry x="-20" y="1200" width="120" height="60" as="geometry"/>
                </mxCell>
                <mxCell id="144" value="" style="edgeStyle=none;html=1;" edge="1" parent="1" source="141" target="143">
                    <mxGeometry relative="1" as="geometry"/>
                </mxCell>
                <mxCell id="141" value="open up websocket client to handle communications with the server&lt;br&gt;" style="rounded=0;whiteSpace=wrap;html=1;" vertex="1" parent="1">
                    <mxGeometry x="-20" y="1320" width="120" height="80" as="geometry"/>
                </mxCell>
                <mxCell id="146" value="" style="edgeStyle=none;html=1;" edge="1" parent="1" source="143" target="145">
                    <mxGeometry relative="1" as="geometry"/>
                </mxCell>
                <mxCell id="148" value="" style="edgeStyle=none;html=1;" edge="1" parent="1" source="143" target="147">
                    <mxGeometry relative="1" as="geometry"/>
                </mxCell>
                <mxCell id="143" value="is success" style="rhombus;whiteSpace=wrap;html=1;rounded=0;" vertex="1" parent="1">
                    <mxGeometry y="1440" width="80" height="80" as="geometry"/>
                </mxCell>
                <mxCell id="152" value="" style="edgeStyle=none;html=1;" edge="1" parent="1" source="145" target="151">
                    <mxGeometry relative="1" as="geometry"/>
                </mxCell>
                <mxCell id="145" value="open up websocket server to handle comms with&lt;br&gt;&amp;nbsp;the browser(client)" style="whiteSpace=wrap;html=1;rounded=0;" vertex="1" parent="1">
                    <mxGeometry x="-20" y="1555" width="120" height="60" as="geometry"/>
                </mxCell>
                <mxCell id="147" value="contiue with normal https" style="whiteSpace=wrap;html=1;rounded=0;" vertex="1" parent="1">
                    <mxGeometry x="120" y="1450" width="120" height="60" as="geometry"/>
                </mxCell>
                <mxCell id="149" value="yes" style="text;html=1;align=center;verticalAlign=middle;resizable=0;points=[];autosize=1;strokeColor=none;fillColor=none;" vertex="1" parent="1">
                    <mxGeometry x="30" y="1525" width="40" height="30" as="geometry"/>
                </mxCell>
                <mxCell id="150" value="no" style="text;html=1;align=center;verticalAlign=middle;resizable=0;points=[];autosize=1;strokeColor=none;fillColor=none;" vertex="1" parent="1">
                    <mxGeometry x="80" y="1450" width="40" height="30" as="geometry"/>
                </mxCell>
                <mxCell id="155" value="" style="edgeStyle=none;html=1;" edge="1" parent="1" source="151" target="154">
                    <mxGeometry relative="1" as="geometry"/>
                </mxCell>
                <mxCell id="151" value="connect the recieving and sending buffers of the server to the client" style="whiteSpace=wrap;html=1;rounded=0;" vertex="1" parent="1">
                    <mxGeometry x="-20" y="1645" width="120" height="60" as="geometry"/>
                </mxCell>
                <mxCell id="153" value="redirect the http websocket&amp;nbsp;&lt;br&gt;upgrade reqeust to the server&lt;br&gt;" style="text;html=1;align=center;verticalAlign=middle;resizable=0;points=[];autosize=1;strokeColor=none;fillColor=none;" vertex="1" parent="1">
                    <mxGeometry x="40" y="1270" width="180" height="40" as="geometry"/>
                </mxCell>
                <mxCell id="154" value="intercept the buffers" style="ellipse;whiteSpace=wrap;html=1;rounded=0;" vertex="1" parent="1">
                    <mxGeometry x="170" y="1635" width="80" height="80" as="geometry"/>
                </mxCell>
                <mxCell id="156" value="?: what response should we expect from the server after we have sent the upgrade request" style="ellipse;shape=cloud;whiteSpace=wrap;html=1;" vertex="1" parent="1">
                    <mxGeometry x="120" y="1290" width="120" height="150" as="geometry"/>
                </mxCell>
            </root>
        </mxGraphModel>
    </diagram>
</mxfile>